<svg width="16" height="16" viewBox="0 0 16 16" fill="none" xmlns="http://www.w3.org/2000/svg">
<path d="M8.00021 5.43555C8.17599 5.44057 8.3367 5.50586 8.46728 5.64648L12.2842 9.55385C12.3947 9.66434 12.455 9.80497 12.455 9.9707C12.455 10.3022 12.1938 10.5684 11.8624 10.5684C11.7017 10.5684 11.546 10.5031 11.4305 10.3876L8.00523 6.86691L4.56996 10.3876C4.45445 10.498 4.30378 10.5684 4.13804 10.5684C3.80657 10.5684 3.54541 10.3022 3.54541 9.9707C3.54541 9.80497 3.60568 9.66434 3.71617 9.55385L7.53816 5.64648C7.67376 5.50586 7.82443 5.43555 8.00021 5.43555Z" fill="#29B0C7"/>
</svg>
