<svg width="12" height="14" viewBox="0 0 12 14" fill="none" xmlns="http://www.w3.org/2000/svg">
<path d="M11.3334 7.00065C11.3334 6.26532 10.7354 5.66732 10.0001 5.66732H9.33342V3.66732C9.33342 1.82932 7.83808 0.333984 6.00008 0.333984C4.16208 0.333984 2.66675 1.82932 2.66675 3.66732V5.66732H2.00008C1.26475 5.66732 0.666748 6.26532 0.666748 7.00065V12.334C0.666748 13.0693 1.26475 13.6673 2.00008 13.6673H10.0001C10.7354 13.6673 11.3334 13.0693 11.3334 12.334V7.00065ZM4.00008 3.66732C4.00008 2.56465 4.89741 1.66732 6.00008 1.66732C7.10275 1.66732 8.00008 2.56465 8.00008 3.66732V5.66732H4.00008V3.66732Z" fill="black" fill-opacity="0.7"/>
</svg>
