<svg width="85" height="76" viewBox="0 0 85 76" fill="none" xmlns="http://www.w3.org/2000/svg">
<path d="M14.4878 65.4668L11.8445 75.6068H8.85446L7.23668 68.9335L5.56112 75.6068H2.57112L0 65.4668H2.64334L4.10223 72.8479L5.90779 65.4668H8.62335L10.3567 72.8479L11.83 65.4668H14.4878Z" fill="#4CB2BE"/>
<path d="M18.1965 65.4668V75.6068H15.7265V65.4668H18.1965Z" fill="#4CB2BE"/>
<path d="M22.4565 73.7001H25.6921V75.6068H19.9865V65.4668H22.4565V73.7001Z" fill="#4CB2BE"/>
<path d="M29.3402 73.7001H32.5758V75.6068H26.8702V65.4668H29.3402V73.7001Z" fill="#4CB2BE"/>
<path d="M40.6676 68.789C40.4846 68.452 40.2198 68.1968 39.8731 68.0235C39.5361 67.8405 39.1365 67.749 38.6743 67.749C37.875 67.749 37.2346 68.0138 36.7531 68.5435C36.2717 69.0635 36.0309 69.7616 36.0309 70.6379C36.0309 71.572 36.2813 72.3038 36.782 72.8335C37.2924 73.3535 37.9905 73.6135 38.8765 73.6135C39.4831 73.6135 39.9935 73.4594 40.4076 73.1513C40.8313 72.8431 41.1394 72.4001 41.332 71.8224H38.1976V70.0024H43.5709V72.299C43.388 72.9153 43.075 73.4883 42.632 74.0179C42.1987 74.5476 41.645 74.9761 40.9709 75.3035C40.2968 75.6309 39.5361 75.7946 38.6887 75.7946C37.6872 75.7946 36.7917 75.5779 36.002 75.1446C35.222 74.7016 34.6105 74.0901 34.1676 73.3101C33.7342 72.5301 33.5176 71.6394 33.5176 70.6379C33.5176 69.6364 33.7342 68.7457 34.1676 67.9657C34.6105 67.1761 35.222 66.5646 36.002 66.1312C36.782 65.6883 37.6728 65.4668 38.6743 65.4668C39.8876 65.4668 40.9083 65.7605 41.7365 66.3479C42.5743 66.9353 43.128 67.749 43.3976 68.789H40.6676Z" fill="#D86D0C"/>
<path d="M47.3658 65.5824V71.649C47.3658 72.2557 47.515 72.7227 47.8135 73.0501C48.1121 73.3776 48.5502 73.5413 49.128 73.5413C49.7058 73.5413 50.1487 73.3776 50.4569 73.0501C50.765 72.7227 50.9191 72.2557 50.9191 71.649V65.5824H53.3891V71.6346C53.3891 72.5398 53.1965 73.3053 52.8113 73.9313C52.4261 74.5572 51.9061 75.029 51.2513 75.3468C50.6061 75.6646 49.8839 75.8235 49.0847 75.8235C48.2854 75.8235 47.568 75.6694 46.9324 75.3613C46.3065 75.0435 45.8106 74.5716 45.4446 73.9457C45.0787 73.3101 44.8958 72.5398 44.8958 71.6346V65.5824H47.3658Z" fill="#D86D0C"/>
<path d="M61.4358 73.9313H57.6514L57.0447 75.7224H54.4591L58.128 65.5824H60.988L64.6569 75.7224H62.0425L61.4358 73.9313ZM60.8002 72.0246L59.5436 68.3124L58.3014 72.0246H60.8002Z" fill="#D86D0C"/>
<path d="M70.9447 75.7224L68.8358 71.8946H68.2435V75.7224H65.7735V65.5824H69.9191C70.7184 65.5824 71.3973 65.722 71.9558 66.0012C72.5239 66.2805 72.9476 66.6657 73.2269 67.1568C73.5061 67.6383 73.6458 68.1775 73.6458 68.7746C73.6458 69.4487 73.4532 70.0505 73.068 70.5801C72.6924 71.1098 72.1339 71.4853 71.3924 71.7068L73.7324 75.7224H70.9447ZM68.2435 70.1468H69.7747C70.2273 70.1468 70.5643 70.0361 70.7858 69.8146C71.0169 69.5931 71.1324 69.2801 71.1324 68.8757C71.1324 68.4905 71.0169 68.1872 70.7858 67.9657C70.5643 67.7442 70.2273 67.6335 69.7747 67.6335H68.2435V70.1468Z" fill="#D86D0C"/>
<path d="M78.9952 65.5824C80.0641 65.5824 80.9982 65.7942 81.7974 66.2179C82.5967 66.6416 83.213 67.2387 83.6463 68.009C84.0893 68.7698 84.3108 69.6509 84.3108 70.6524C84.3108 71.6442 84.0893 72.5253 83.6463 73.2957C83.213 74.0661 82.5919 74.6631 81.783 75.0868C80.9837 75.5105 80.0545 75.7224 78.9952 75.7224H75.1963V65.5824H78.9952ZM78.8363 73.5846C79.7704 73.5846 80.4974 73.3294 81.0174 72.819C81.5374 72.3087 81.7974 71.5864 81.7974 70.6524C81.7974 69.7183 81.5374 68.9912 81.0174 68.4712C80.4974 67.9512 79.7704 67.6912 78.8363 67.6912H77.6663V73.5846H78.8363Z" fill="#D86D0C"/>
<path d="M43.3616 2.58013L42.8779 2.41535L42.3942 2.58013L18.1696 10.8326L17.1533 11.1788V12.2525V31.6464V31.9383L17.2628 32.2089L18.6533 31.6464C17.2628 32.2089 17.263 32.2093 17.2632 32.2099L17.2638 32.2114L17.2655 32.2157L17.2713 32.2298L17.2919 32.2797C17.3096 32.3224 17.3354 32.384 17.3692 32.4633C17.4369 32.622 17.5367 32.8518 17.6685 33.1444C17.9322 33.7296 18.3246 34.5667 18.8452 35.5893C19.8854 37.6328 21.4422 40.4259 23.513 43.4321C27.6323 49.4122 33.8928 56.3928 42.3071 59.8549L42.8779 60.0897L43.4487 59.8549C51.863 56.3928 58.1235 49.4122 62.2428 43.4321C64.3136 40.4259 65.8704 37.6328 66.9106 35.5893C67.4312 34.5667 67.8236 33.7296 68.0873 33.1444C68.2191 32.8518 68.3189 32.622 68.3866 32.4633C68.4204 32.384 68.4462 32.3224 68.4639 32.2797L68.4845 32.2298L68.4903 32.2157L68.492 32.2114L68.4926 32.2099C68.4928 32.2093 68.493 32.2089 67.1025 31.6464L68.493 32.2089L68.6025 31.9383V31.6464V12.2525V11.1788L67.5862 10.8326L43.3616 2.58013Z" stroke="#4CB2BE" stroke-width="3" stroke-miterlimit="10"/>
<path d="M42.877 8.81445L22.5645 15.5751V30.3367C22.5645 30.3367 24.5121 42.0635 42.877 53.6525C61.2419 42.0635 63.1895 30.3367 63.1895 30.3367V15.5751L42.877 8.81445Z" fill="#D86D0C"/>
<path d="M54.1623 27.8585V29.2919C54.0414 30.1616 53.7266 30.9621 53.2171 31.6917C52.7075 32.4221 52.0442 33.0043 51.2281 33.4392C50.4111 33.874 49.5045 34.0915 48.5076 34.0915C47.4333 34.0915 46.4528 33.8474 45.5643 33.3586C45.1468 33.1291 44.7695 32.8561 44.4334 32.5413L44.0035 33.9626H41.883L39.4831 25.4909L36.9351 33.9626L34.8311 33.9787L31.5928 22.769H33.5818L35.9489 31.8849L38.5132 22.769H40.6173L43.0008 31.8366L43.24 30.9283C42.8611 30.1584 42.672 29.3072 42.672 28.3739C42.672 27.2786 42.9318 26.2962 43.4528 25.4265C43.8893 24.6977 44.4564 24.1026 45.155 23.6427C45.2898 23.5525 45.4287 23.468 45.5734 23.3891C46.1166 23.0919 46.692 22.885 47.2994 22.769C47.6889 22.6933 48.0917 22.6562 48.5076 22.6562C49.724 22.6562 50.8056 22.9494 51.7541 23.534C52.7017 24.1195 53.3897 24.9489 53.8171 26.0224H51.5642C51.2692 25.4643 50.8582 25.0431 50.3314 24.7581C49.8062 24.4738 49.198 24.3313 48.5076 24.3313C47.8887 24.3313 47.324 24.4432 46.8153 24.6671C46.7027 24.7154 46.5925 24.7702 46.4857 24.8305C45.8931 25.1639 45.4303 25.6358 45.0967 26.2479C44.7621 26.8599 44.5953 27.5686 44.5953 28.3739C44.5953 29.1791 44.7523 29.8467 45.0662 30.4499C45.0761 30.4692 45.086 30.4886 45.0967 30.5079C45.4303 31.1255 45.8931 31.6007 46.4857 31.9333C47.0774 32.2667 47.7514 32.4325 48.5076 32.4325C49.5267 32.4325 50.3536 32.1539 50.9889 31.595C51.625 31.037 52.0138 30.28 52.1568 29.3241H47.8657V27.8585H54.1623Z" fill="#EAF8FA"/>
</svg>
