<svg width="161" height="182" viewBox="0 0 161 182" fill="none" xmlns="http://www.w3.org/2000/svg">
<path d="M82.8819 6.79417L81.1073 6.18921L79.3326 6.79417L9.22537 30.6932L5.5 31.9632V35.899V92.0637V93.1333L5.90083 94.1249L11 92.0637C5.90083 94.1249 5.9015 94.1265 5.90225 94.1284L5.90422 94.1333L5.90978 94.147L5.92747 94.1903C5.94218 94.2262 5.96272 94.2761 5.98908 94.3397C6.04181 94.4668 6.11785 94.6484 6.21719 94.8816C6.41585 95.3479 6.70779 96.0206 7.09284 96.8756C7.86274 98.5851 9.00611 101.026 10.5217 104.005C13.5498 109.958 18.0807 118.092 24.1089 126.849C36.0831 144.244 54.3591 164.673 79.0133 174.824L81.1073 175.686L83.2012 174.824C107.855 164.673 126.131 144.244 138.106 126.849C144.134 118.092 148.665 109.958 151.693 104.005C153.208 101.026 154.352 98.5851 155.122 96.8756C155.507 96.0206 155.799 95.3479 155.997 94.8816C156.097 94.6484 156.173 94.4668 156.225 94.3397C156.239 94.3067 156.251 94.2773 156.262 94.2517C156.272 94.228 156.28 94.2076 156.287 94.1903L156.305 94.147L156.31 94.1333L156.312 94.1284C156.313 94.1265 156.314 94.1249 151.215 92.0637L156.314 94.1249L156.715 93.1333V92.0637V35.899V31.9632L152.989 30.6932L82.8819 6.79417Z" stroke="#4CB2BE" stroke-width="11" stroke-miterlimit="10"/>
<path d="M81.104 25.9424L22.3184 45.5212V88.2706C22.3184 88.2706 27.955 122.231 81.104 155.793C134.253 122.231 139.89 88.2706 139.89 88.2706V45.5212L81.104 25.9424Z" fill="#D86D0C"/>
<path d="M113.765 81.0939V85.2451C113.415 87.7638 112.504 90.0819 111.029 92.1948C109.554 94.31 107.635 95.9962 105.273 97.2555C102.909 98.5149 100.285 99.1445 97.3996 99.1445C94.2907 99.1445 91.453 98.4379 88.8817 97.0223C87.6733 96.3576 86.5815 95.5671 85.6087 94.6552L84.3647 98.7714H78.2278L71.2822 74.2374L63.9084 98.7714L57.8191 98.818L48.4473 66.3548H54.2036L61.054 92.7545L68.4754 66.3548H74.5647L81.4627 92.6146L82.1549 89.9839C81.0584 87.7544 80.5113 85.2894 80.5113 82.5864C80.5113 79.4147 81.2629 76.5695 82.771 74.0508C84.034 71.9403 85.6753 70.2168 87.6971 68.8852C88.0872 68.624 88.4892 68.3791 88.9079 68.1506C90.4801 67.29 92.1452 66.6906 93.903 66.3548C95.0305 66.1356 96.196 66.0283 97.3996 66.0283C100.92 66.0283 104.05 66.8772 106.795 68.5703C109.538 70.2658 111.529 72.6679 112.766 75.7766H106.246C105.392 74.1605 104.202 72.9407 102.678 72.1152C101.158 71.2919 99.3976 70.8791 97.3996 70.8791C95.6085 70.8791 93.9743 71.2033 92.502 71.8516C92.1761 71.9916 91.8574 72.1502 91.5481 72.3251C89.8331 73.2906 88.494 74.6572 87.5282 76.4296C86.5601 78.202 86.0773 80.2543 86.0773 82.5864C86.0773 84.9186 86.5316 86.8519 87.4402 88.5987C87.4688 88.6546 87.4973 88.7106 87.5282 88.7666C88.494 90.5553 89.8331 91.9313 91.5481 92.8944C93.2608 93.8599 95.2112 94.3404 97.3996 94.3404C100.349 94.3404 102.742 93.5334 104.581 91.9149C106.422 90.2988 107.547 88.1066 107.961 85.3383H95.5419V81.0939H113.765Z" fill="#EAF8FA"/>
</svg>
